<?xml version="1.0" encoding="utf-8"?>
<svg version="1.1" xmlns:xlink="http://www.w3.org/1999/xlink" width="130px" height="130px" xmlns="http://www.w3.org/2000/svg">
  <defs>
    <mask fill="white" id="clip38">
      <path d="M 9 130  C 3.45 130  -1 125.55  -1 120  L -1 10  C -1 4.45  3.45 0  9 0  L 119 0  C 124.55 0  129 4.45  129 10  L 129 120  C 129 125.55  124.55 130  119 130  " fill-rule="evenodd" />
    </mask>
  </defs>
  <g transform="matrix(1 0 0 1 1 0 )">
    <path d="M -1 0  L 129 0  L 129 130  L -1 130  L -1 0  " fill-rule="nonzero" fill="#cccccc" stroke="none" mask="url(#clip38)" />
    <path d="M 8 9  L 120 9  L 120 121  L 8 121  L 8 9  " fill-rule="nonzero" fill="#ffffff" stroke="none" mask="url(#clip38)" />
    <path d="M 76.35 39  C 70.89 39  66.6 34.71  66.6 29.25  C 66.6 23.79  70.89 19.5  76.35 19.5  C 81.81 19.5  86.1 23.79  86.1 29.25  C 86.1 34.71  81.81 39  76.35 39  " fill-rule="nonzero" fill="#cccccc" stroke="none" mask="url(#clip38)" />
    <path d="M 12 118  L 12 60.25  L 38.25 34  L 75 55  L 96 49.75  L 117 55  L 117 118  L 12 118  " fill-rule="nonzero" fill="#169bd5" stroke="none" mask="url(#clip38)" />
  </g>
</svg>