<?xml version="1.0" encoding="utf-8"?>
<svg version="1.1" xmlns:xlink="http://www.w3.org/1999/xlink" width="87px" height="87px" xmlns="http://www.w3.org/2000/svg">
  <defs>
    <filter x="312px" y="682px" width="87px" height="87px" filterUnits="userSpaceOnUse" id="filter54">
      <feOffset dx="1" dy="1" in="SourceAlpha" result="shadowOffsetInner" />
      <feGaussianBlur stdDeviation="2.5" in="shadowOffsetInner" result="shadowGaussian" />
      <feComposite in2="shadowGaussian" operator="atop" in="SourceAlpha" result="shadowComposite" />
      <feColorMatrix type="matrix" values="0 0 0 0 0  0 0 0 0 0  0 0 0 0 0  0 0 0 0.698039215686274 0  " in="shadowComposite" />
    </filter>
    <g id="widget55">
      <path d="M 354.5 686  C 376.06 686  393 702.94  393 724.5  C 393 746.06  376.06 763  354.5 763  C 332.94 763  316 746.06  316 724.5  C 316 702.94  332.94 686  354.5 686  Z " fill-rule="nonzero" fill="#dd1d35" stroke="none" />
      <path d="M 354.5 686.5  C 375.78 686.5  392.5 703.22  392.5 724.5  C 392.5 745.78  375.78 762.5  354.5 762.5  C 333.22 762.5  316.5 745.78  316.5 724.5  C 316.5 703.22  333.22 686.5  354.5 686.5  Z " stroke-width="1" stroke="#ffffff" fill="none" />
    </g>
  </defs>
  <g transform="matrix(1 0 0 1 -312 -682 )">
    <use xlink:href="#widget55" filter="url(#filter54)" />
    <use xlink:href="#widget55" />
  </g>
</svg>