<?xml version="1.0" encoding="utf-8"?>
<svg version="1.1" xmlns:xlink="http://www.w3.org/1999/xlink" width="40px" height="34px" xmlns="http://www.w3.org/2000/svg">
  <g transform="matrix(1 0 0 1 -335 -707 )">
    <path d="M 14.4711538461538 28.7357954545455  C 15.0801282051282 29.3475378787879  15.3846153846154 30.0719696969697  15.3846153846154 30.9090909090909  C 15.3846153846154 31.7462121212121  15.0801282051282 32.4706439393939  14.4711538461538 33.0823863636364  C 13.8621794871795 33.6941287878788  13.1410256410256 34  12.3076923076923 34  C 11.474358974359 34  10.7532051282051 33.6941287878788  10.1442307692308 33.0823863636364  C 9.53525641025641 32.4706439393939  9.23076923076923 31.7462121212121  9.23076923076923 30.9090909090909  C 9.23076923076923 30.0719696969697  9.53525641025641 29.3475378787879  10.1442307692308 28.7357954545455  C 10.7532051282051 28.124053030303  11.474358974359 27.8181818181818  12.3076923076923 27.8181818181818  C 13.1410256410256 27.8181818181818  13.8621794871795 28.124053030303  14.4711538461538 28.7357954545455  Z M 36.0096153846154 28.7357954545455  C 36.6185897435897 29.3475378787879  36.9230769230769 30.0719696969697  36.9230769230769 30.9090909090909  C 36.9230769230769 31.7462121212121  36.6185897435897 32.4706439393939  36.0096153846154 33.0823863636364  C 35.400641025641 33.6941287878788  34.6794871794872 34  33.8461538461538 34  C 33.0128205128205 34  32.2916666666667 33.6941287878788  31.6826923076923 33.0823863636364  C 31.073717948718 32.4706439393939  30.7692307692308 31.7462121212121  30.7692307692308 30.9090909090909  C 30.7692307692308 30.0719696969697  31.073717948718 29.3475378787879  31.6826923076923 28.7357954545455  C 32.2916666666667 28.124053030303  33.0128205128205 27.8181818181818  33.8461538461538 27.8181818181818  C 34.6794871794872 27.8181818181818  35.400641025641 28.124053030303  36.0096153846154 28.7357954545455  Z M 39.5432692307692 3.54971590909091  C 39.8477564102564 3.85558712121212  40 4.21780303030303  40 4.63636363636364  L 40 17  C 40 17.3863636363636  39.8677884615385 17.7284564393939  39.6033653846154 18.0262784090909  C 39.3389423076923 18.3241003787879  39.0144230769231 18.4971590909091  38.6298076923077 18.5454545454545  L 13.5336538461538 21.4914772727273  C 13.7419871794872 22.4573863636364  13.8461538461538 23.0208333333333  13.8461538461538 23.1818181818182  C 13.8461538461538 23.4393939393939  13.6538461538462 23.9545454545455  13.2692307692308 24.7272727272727  L 35.3846153846154 24.7272727272727  C 35.8012820512821 24.7272727272727  36.161858974359 24.8802083333333  36.4663461538462 25.1860795454545  C 36.7708333333333 25.4919507575758  36.9230769230769 25.8541666666667  36.9230769230769 26.2727272727273  C 36.9230769230769 26.6912878787879  36.7708333333333 27.0535037878788  36.4663461538462 27.359375  C 36.161858974359 27.6652462121212  35.8012820512821 27.8181818181818  35.3846153846154 27.8181818181818  L 10.7692307692308 27.8181818181818  C 10.3525641025641 27.8181818181818  9.99198717948718 27.6652462121212  9.6875 27.359375  C 9.38301282051282 27.0535037878788  9.23076923076923 26.6912878787879  9.23076923076923 26.2727272727273  C 9.23076923076923 26.0956439393939  9.29487179487179 25.8420928030303  9.42307692307692 25.5120738636364  C 9.55128205128205 25.1820549242424  9.67948717948718 24.8922821969697  9.80769230769231 24.6427556818182  C 9.93589743589744 24.3932291666667  10.1081730769231 24.071259469697  10.3245192307692 23.6768465909091  C 10.5408653846154 23.2824337121212  10.6650641025641 23.0449810606061  10.6971153846154 22.9644886363636  L 6.44230769230769 3.09090909090909  L 1.53846153846154 3.09090909090909  C 1.12179487179487 3.09090909090909  0.761217948717949 2.93797348484848  0.456730769230769 2.63210227272727  C 0.15224358974359 2.32623106060606  0 1.96401515151515  0 1.54545454545454  C 0 1.12689393939394  0.15224358974359 0.764678030303026  0.456730769230769 0.45880681818182  C 0.761217948717949 0.152935606060603  1.12179487179487 0  1.53846153846154 0  L 7.69230769230769 0  C 7.94871794871795 0  8.17708333333333 0.0523200757575735  8.37740384615385 0.156960227272728  C 8.57772435897436 0.261600378787879  8.73397435897436 0.386363636363636  8.84615384615385 0.53125  C 8.95833333333333 0.676136363636364  9.0625 0.873342803030298  9.15865384615385 1.12286931818182  C 9.25480769230769 1.37239583333333  9.31891025641026 1.58167613636364  9.35096153846154 1.75071022727273  C 9.38301282051282 1.91974431818182  9.42708333333333 2.15719696969697  9.48317307692308 2.46306818181818  C 9.53926282051282 2.76893939393939  9.57532051282051 2.97821969696969  9.59134615384615 3  L 38.4615384615385 3  C 38.8782051282051 3.09090909090909  39.2387820512821 3.24384469696969  39.5432692307692 3.54971590909091  Z " fill-rule="nonzero" fill="#ffffff" stroke="none" transform="matrix(1 0 0 1 335 707 )" />
  </g>
</svg>