<?xml version="1.0" encoding="utf-8"?>
<svg version="1.1" xmlns:xlink="http://www.w3.org/1999/xlink" width="21px" height="20px" xmlns="http://www.w3.org/2000/svg">
  <g transform="matrix(1 0 0 1 -275 -504 )">
    <path d="M 20.2932692307692 7.17076244486452  C 20.7644230769231 7.2463768115942  21 7.43961352657005  21 7.75047258979206  C 21 7.93530770846461  20.890625 8.13694601974375  20.671875 8.35538752362949  L 16.0907451923077 12.8166351606805  L 17.1760817307692 19.1178323881537  C 17.1844951923077 19.1766435622768  17.1887019230769 19.2606595253098  17.1887019230769 19.3698802772527  C 17.1887019230769 19.5463137996219  17.14453125 19.6954421340055  17.0561899038462 19.8172652804033  C 16.9678485576923 19.9390884268011  16.8395432692308 20  16.6712740384615 20  C 16.5114182692308 20  16.3431490384615 19.9495904221802  16.1664663461538 19.8487712665406  L 10.5 16.8746061751733  L 4.83353365384615 19.8487712665406  C 4.6484375 19.9495904221802  4.48016826923077 20  4.32872596153846 20  C 4.15204326923077 20  4.01953125 19.9390884268011  3.93118990384615 19.8172652804033  C 3.84284855769231 19.6954421340055  3.79867788461538 19.5463137996219  3.79867788461538 19.3698802772527  C 3.79867788461538 19.3194706994329  3.80709134615385 19.2354547363999  3.82391826923077 19.1178323881537  L 4.90925480769231 12.8166351606805  L 0.315504807692308 8.35538752362949  C 0.105168269230769 8.12854442344045  0 7.92690611216131  0 7.75047258979206  C 0 7.43961352657005  0.235576923076923 7.2463768115942  0.706730769230769 7.17076244486452  L 7.04206730769231 6.25078764965343  L 9.88161057692308 0.516698172652803  C 10.0414663461538 0.1722327242176  10.2475961538462 0  10.5 0  C 10.7524038461538 0  10.9585336538462 0.1722327242176  11.1183894230769 0.516698172652803  L 13.9579326923077 6.25078764965343  L 20.2932692307692 7.17076244486452  Z " fill-rule="nonzero" fill="#b7172e" stroke="none" transform="matrix(1 0 0 1 275 504 )" />
  </g>
</svg>