<?xml version="1.0" encoding="utf-8"?>
<svg version="1.1" xmlns:xlink="http://www.w3.org/1999/xlink" width="353px" height="206px" xmlns="http://www.w3.org/2000/svg">
  <defs>
    <mask fill="white" id="clip68">
      <path d="M 0 200.147727272727  L 0 5.85227272727273  C 0 2.57500000000005  2.2 0  5 0  L 168.76595744681 0  L 348 0  C 350.8 0  353 2.57500000000005  353 5.85227272727273  L 353 200.147727272727  C 353 203.425  350.8 206  348 206  L 5 206  C 2.2 206  0 203.425  0 200.147727272727  Z " fill-rule="evenodd" />
    </mask>
  </defs>
  <g transform="matrix(1 0 0 1 -29 -614 )">
    <path d="M 0 200.147727272727  L 0 5.85227272727273  C 0 2.57500000000005  2.2 0  5 0  L 168.76595744681 0  L 348 0  C 350.8 0  353 2.57500000000005  353 5.85227272727273  L 353 200.147727272727  C 353 203.425  350.8 206  348 206  L 5 206  C 2.2 206  0 203.425  0 200.147727272727  Z " fill-rule="nonzero" fill="#ffffff" stroke="none" fill-opacity="0" transform="matrix(1 0 0 1 29 614 )" />
    <path d="M 0 200.147727272727  L 0 5.85227272727273  C 0 2.57500000000005  2.2 0  5 0  L 168.76595744681 0  L 348 0  C 350.8 0  353 2.57500000000005  353 5.85227272727273  L 353 200.147727272727  C 353 203.425  350.8 206  348 206  L 5 206  C 2.2 206  0 203.425  0 200.147727272727  Z " stroke-width="6" stroke="#030303" fill="none" transform="matrix(1 0 0 1 29 614 )" mask="url(#clip68)" />
  </g>
</svg>