<?xml version="1.0" encoding="utf-8"?>
<svg version="1.1" xmlns:xlink="http://www.w3.org/1999/xlink" width="21px" height="20px" xmlns="http://www.w3.org/2000/svg">
  <g transform="matrix(1 0 0 1 -183 -120 )">
    <path d="M 14.3491586538462 12.2495274102079  L 14.9675480769231 11.6572148708255  L 18.2109375 8.50661625708885  L 13.7181490384615 7.85129174543163  L 12.8852163461538 7.72526780088217  L 12.5066105769231 6.96912413358538  L 10.5 2.91115311909263  L 10.5 15.047258979206  L 11.2445913461538 15.4379332073094  L 15.2578125 17.5551354757404  L 14.5006009615385 13.0812854442344  L 14.3491586538462 12.2495274102079  Z M 20.9747596153846 7.60554505356018  C 21.0504807692308 7.83658895190086  20.9495192307692 8.08653644192396  20.671875 8.35538752362949  L 16.0907451923077 12.8166351606805  L 17.1760817307692 19.1178323881537  C 17.2181490384615 19.3950850661626  17.1929086538462 19.6114261709725  17.1003605769231 19.7668557025835  C 17.0078125 19.9222852341945  16.8647836538462 20  16.6712740384615 20  C 16.5282451923077 20  16.3599759615385 19.9495904221802  16.1664663461538 19.8487712665406  L 10.5 16.8746061751733  L 4.83353365384615 19.8487712665406  C 4.64002403846154 19.9495904221802  4.47175480769231 20  4.32872596153846 20  C 4.13521634615385 20  3.9921875 19.9222852341945  3.89963942307692 19.7668557025835  C 3.80709134615385 19.6114261709725  3.78185096153846 19.3950850661626  3.82391826923077 19.1178323881537  L 4.90925480769231 12.8166351606805  L 0.315504807692308 8.35538752362949  C 0.0462740384615384 8.08653644192396  -0.0504807692307692 7.83658895190086  0.0252403846153846 7.60554505356018  C 0.100961538461538 7.37450115521949  0.328125 7.22957361898761  0.706730769230769 7.17076244486452  L 7.04206730769231 6.25078764965343  L 9.88161057692308 0.516698172652803  C 10.0498798076923 0.1722327242176  10.2560096153846 0  10.5 0  C 10.7355769230769 0  10.9417067307692 0.1722327242176  11.1183894230769 0.516698172652803  L 13.9579326923077 6.25078764965343  L 20.2932692307692 7.17076244486452  C 20.671875 7.22957361898761  20.8990384615385 7.37450115521949  20.9747596153846 7.60554505356018  Z " fill-rule="nonzero" fill="#b7172e" stroke="none" transform="matrix(1 0 0 1 183 120 )" />
  </g>
</svg>