<?xml version="1.0" encoding="utf-8"?>
<svg version="1.1" xmlns:xlink="http://www.w3.org/1999/xlink" width="117px" height="117px" xmlns="http://www.w3.org/2000/svg">
  <g>
    <path d="M 0 0  L 117 0  L 117 117  L 0 117  L 0 0  " fill-rule="nonzero" fill="#cccccc" stroke="none" />
    <path d="M 8 8  L 109 8  L 109 109  L 8 109  L 8 8  " fill-rule="nonzero" fill="#ffffff" stroke="none" />
    <path d="M 69.615 35.1  C 64.701 35.1  60.84 31.239  60.84 26.325  C 60.84 21.411  64.701 17.55  69.615 17.55  C 74.529 17.55  78.39 21.411  78.39 26.325  C 78.39 31.239  74.529 35.1  69.615 35.1  " fill-rule="nonzero" fill="#cccccc" stroke="none" />
    <path d="M 11 106  L 11 53.75  L 34.75 30  L 68 49  L 87 44.25  L 106 49  L 106 106  L 11 106  " fill-rule="nonzero" fill="#169bd5" stroke="none" />
  </g>
</svg>